<svg xmlns="http://www.w3.org/2000/svg" width="512" height="512" viewBox="0 0 512 512">
  <defs>
    <linearGradient id="spiralGrad" x1="0%" y1="0%" x2="100%" y2="100%">
      <stop offset="0%" style="stop-color:#c77dff;stop-opacity:1" />
      <stop offset="50%" style="stop-color:#f5c842;stop-opacity:1" />
      <stop offset="100%" style="stop-color:#c77dff;stop-opacity:1" />
    </linearGradient>
    <filter id="glow" x="-50%" y="-50%" width="200%" height="200%">
      <feGaussianBlur stdDeviation="10.24" result="coloredBlur"/>
      <feMerge>
        <feMergeNode in="coloredBlur"/>
        <feMergeNode in="SourceGraphic"/>
      </feMerge>
    </filter>
  </defs>
  <rect width="512" height="512" fill="#4a1a6b" rx="76.8"/>
  <path d="M 256 221.44 L 272.90473046962796 219.747688518534 L 290.8090594953264 226.79173101584365 L 305.14630604158776 242.83128698518374 L 311.46437264964754 265.77986536620153 L 306.59083025528815 291.4240807090406 L 289.6 314.19690713431424 L 262.33099315318987 328.3635828693844 L 229.2950672091318 329.37119983096375 L 196.94244163529956 315.05755836470047 L 172.4049444548856 286.42611195025154 L 161.95922050013922 247.772497884621 L 169.5360236861616 206.08000000000007 L 195.61387278096186 169.759672777255 L 236.77367376871746 146.96208558648834 L 286.06442027910884 143.79805601826183 L 334.16297333788316 162.84899571673225 L 371.137341265136 202.31057602846158 L 388.48 255.99999999999997 L 380.9979699880948 314.2875106592772 L 348.1500317246624 365.82013136553655 L 294.5122739112551 399.72976295181337 L 229.21650507665248 407.8967478246029 L 164.4113146434651 386.8021984320663 L 113.0018853271136 338.56000000000023 L 86.08903229347189 270.8652834830406 L 90.61409874168007 195.80445477468243 L 127.70254562151266 127.702545621513 L 192.08327561529902 80.39024302752944 L 272.7617924452295 64.41183566299549 L 354.8800000000001 84.73481614758947 L 422.451695399523 139.44926813346717 L 461.4702895884671 219.7700442115716 L 462.7854008919638 311.4079811755475 L 424.162076153478 397.1047360783892 L 351.0722041611881 459.8829997717646 L 256.0000000000001 486.4"
        fill="none"
        stroke="url(#spiralGrad)"
        stroke-width="30.72"
        stroke-linecap="round"
        filter="url(#glow)"/>
  <circle cx="256" cy="256" r="27.648" fill="#f5c842"/>
</svg>